<svg width="137" height="137" viewBox="0 0 137 137" fill="none" xmlns="http://www.w3.org/2000/svg">
<g clip-path="url(#clip0_0_287)">
<rect y="50" width="100" height="100" transform="rotate(-30 0 50)" fill="white"/>
<g filter="url(#filter0_d_0_287)">
<g filter="url(#filter1_d_0_287)">
<path d="M55.9152 70.5336C57.1609 68.579 57.7143 66.2629 57.4871 63.9563C57.2598 61.6497 56.2648 59.4862 54.6616 57.8123C53.0585 56.1384 50.9398 55.0511 48.6452 54.7246C46.3506 54.398 44.0127 54.8511 42.0062 56.0112C39.9907 57.1747 38.4259 58.9832 37.564 61.1449C36.7021 63.3066 36.5935 65.6956 37.2556 67.9267C37.4293 68.5289 37.4368 69.1669 37.2772 69.773C37.1176 70.3791 36.7969 70.9307 36.3492 71.3692C35.2437 72.4345 34.391 73.734 33.8538 75.1721C33.3166 76.6103 33.1084 78.1505 33.2446 79.6797C33.3809 81.2088 33.858 82.688 34.6411 84.0086C35.4241 85.3291 36.4931 86.4573 37.7694 87.3104C38.2387 87.6344 38.5931 88.0988 38.7819 88.6369C38.9706 89.1749 38.984 89.759 38.82 90.3051C38.2184 92.2119 38.2068 94.2559 38.7866 96.1695C39.3664 98.083 40.5106 99.7768 42.0694 101.029C43.6281 102.281 45.5288 103.033 47.5223 103.187C49.5158 103.341 51.5093 102.889 53.2416 101.89L68.8219 92.8949L55.911 70.5325L55.9152 70.5336Z" fill="url(#paint0_linear_0_287)"/>
<path d="M55.9152 70.5336C57.1609 68.579 57.7143 66.2629 57.4871 63.9563C57.2598 61.6497 56.2648 59.4862 54.6616 57.8123C53.0585 56.1384 50.9398 55.0511 48.6452 54.7246C46.3506 54.398 44.0127 54.8511 42.0062 56.0112C39.9907 57.1747 38.4259 58.9832 37.564 61.1449C36.7021 63.3066 36.5935 65.6956 37.2556 67.9267C37.4293 68.5289 37.4368 69.1669 37.2772 69.773C37.1176 70.3791 36.7969 70.9307 36.3492 71.3692C35.2437 72.4345 34.391 73.734 33.8538 75.1721C33.3166 76.6103 33.1084 78.1505 33.2446 79.6797C33.3809 81.2088 33.858 82.688 34.6411 84.0086C35.4241 85.3291 36.4931 86.4573 37.7694 87.3104C38.2387 87.6344 38.5931 88.0988 38.7819 88.6369C38.9706 89.1749 38.984 89.759 38.82 90.3051C38.2184 92.2119 38.2068 94.2559 38.7866 96.1695C39.3664 98.083 40.5106 99.7768 42.0694 101.029C43.6281 102.281 45.5288 103.033 47.5223 103.187C49.5158 103.341 51.5093 102.889 53.2416 101.89L68.8219 92.8949L55.911 70.5325L55.9152 70.5336Z" fill="url(#paint1_linear_0_287)"/>
<path d="M55.9152 70.5336C57.1609 68.579 57.7143 66.2629 57.4871 63.9563C57.2598 61.6497 56.2648 59.4862 54.6616 57.8123C53.0585 56.1384 50.9398 55.0511 48.6452 54.7246C46.3506 54.398 44.0127 54.8511 42.0062 56.0112C39.9907 57.1747 38.4259 58.9832 37.564 61.1449C36.7021 63.3066 36.5935 65.6956 37.2556 67.9267C37.4293 68.5289 37.4368 69.1669 37.2772 69.773C37.1176 70.3791 36.7969 70.9307 36.3492 71.3692C35.2437 72.4345 34.391 73.734 33.8538 75.1721C33.3166 76.6103 33.1084 78.1505 33.2446 79.6797C33.3809 81.2088 33.858 82.688 34.6411 84.0086C35.4241 85.3291 36.4931 86.4573 37.7694 87.3104C38.2387 87.6344 38.5931 88.0988 38.7819 88.6369C38.9706 89.1749 38.984 89.759 38.82 90.3051C38.2184 92.2119 38.2068 94.2559 38.7866 96.1695C39.3664 98.083 40.5106 99.7768 42.0694 101.029C43.6281 102.281 45.5288 103.033 47.5223 103.187C49.5158 103.341 51.5093 102.889 53.2416 101.89L68.8219 92.8949L55.911 70.5325L55.9152 70.5336Z" fill="url(#paint2_radial_0_287)"/>
</g>
<g filter="url(#filter2_f_0_287)">
<path d="M54.5109 98.8808C56.4988 95.7968 55.0422 91.319 51.2575 88.8794C47.4727 86.4399 42.7931 86.9623 40.8051 90.0464C38.8172 93.1305 40.2738 97.6083 44.0585 100.048C47.8433 102.487 52.5229 101.965 54.5109 98.8808Z" fill="url(#paint3_radial_0_287)"/>
</g>
<g filter="url(#filter3_f_0_287)">
<path d="M38.7322 85.7374C42.146 87.015 46.1953 84.6253 47.7765 80.4C49.3577 76.1747 47.8721 71.7138 44.4582 70.4362C41.0443 69.1587 36.995 71.5483 35.4138 75.7736C33.8326 79.9989 35.3183 84.4599 38.7322 85.7374Z" fill="url(#paint4_radial_0_287)"/>
</g>
<path d="M36.6423 49.4518C36.4973 49.2005 36.4579 48.902 36.533 48.6218C36.6081 48.3416 36.7914 48.1027 37.0426 47.9577L43.2239 44.3889C43.4751 44.2439 43.7737 44.2046 44.0539 44.2796C44.334 44.3547 44.5729 44.538 44.718 44.7893L57.6586 67.2031L49.5802 71.8671L36.6396 49.4533L36.6423 49.4518Z" fill="url(#paint5_radial_0_287)"/>
<path d="M36.6423 49.4518C36.4973 49.2005 36.4579 48.902 36.533 48.6218C36.6081 48.3416 36.7914 48.1027 37.0426 47.9577L43.2239 44.3889C43.4751 44.2439 43.7737 44.2046 44.0539 44.2796C44.334 44.3547 44.5729 44.538 44.718 44.7893L57.6586 67.2031L49.5802 71.8671L36.6396 49.4533L36.6423 49.4518Z" fill="url(#paint6_linear_0_287)"/>
<path d="M36.6423 49.4518C36.4973 49.2005 36.4579 48.902 36.533 48.6218C36.6081 48.3416 36.7914 48.1027 37.0426 47.9577L43.2239 44.3889C43.4751 44.2439 43.7737 44.2046 44.0539 44.2796C44.334 44.3547 44.5729 44.538 44.718 44.7893L57.6586 67.2031L49.5802 71.8671L36.6396 49.4533L36.6423 49.4518Z" fill="url(#paint7_linear_0_287)"/>
<path d="M36.6423 49.4518C36.4973 49.2005 36.4579 48.902 36.533 48.6218C36.6081 48.3416 36.7914 48.1027 37.0426 47.9577L43.2239 44.3889C43.4751 44.2439 43.7737 44.2046 44.0539 44.2796C44.334 44.3547 44.5729 44.538 44.718 44.7893L57.6586 67.2031L49.5802 71.8671L36.6396 49.4533L36.6423 49.4518Z" fill="url(#paint8_linear_0_287)"/>
<path d="M36.6423 49.4518C36.4973 49.2005 36.4579 48.902 36.533 48.6218C36.6081 48.3416 36.7914 48.1027 37.0426 47.9577L43.2239 44.3889C43.4751 44.2439 43.7737 44.2046 44.0539 44.2796C44.334 44.3547 44.5729 44.538 44.718 44.7893L57.6586 67.2031L49.5802 71.8671L36.6396 49.4533L36.6423 49.4518Z" fill="url(#paint9_radial_0_287)"/>
<path d="M114.229 78.2732L65.2523 106.55L47.6117 75.9953L57.9892 37.4196L96.5827 47.7218L114.223 78.2763L114.229 78.2732Z" fill="url(#paint10_linear_0_287)"/>
<path d="M114.229 78.2732L65.2523 106.55L47.6117 75.9953L57.9892 37.4196L96.5827 47.7218L114.223 78.2763L114.229 78.2732Z" fill="url(#paint11_linear_0_287)"/>
<path d="M114.229 78.2732L65.2523 106.55L47.6117 75.9953L57.9892 37.4196L96.5827 47.7218L114.223 78.2763L114.229 78.2732Z" fill="url(#paint12_radial_0_287)"/>
<path d="M114.229 78.2732L65.2523 106.55L47.6117 75.9953L57.9892 37.4196L96.5827 47.7218L114.223 78.2763L114.229 78.2732Z" fill="url(#paint13_linear_0_287)"/>
<path d="M114.229 78.2732L65.2523 106.55L47.6117 75.9953L57.9892 37.4196L96.5827 47.7218L114.223 78.2763L114.229 78.2732Z" fill="url(#paint14_radial_0_287)"/>
<path d="M114.229 78.2732L65.2523 106.55L47.6117 75.9953L57.9892 37.4196L96.5827 47.7218L114.223 78.2763L114.229 78.2732Z" fill="url(#paint15_linear_0_287)"/>
<path d="M114.229 78.2732L65.2523 106.55L47.6117 75.9953L57.9892 37.4196L96.5827 47.7218L114.223 78.2763L114.229 78.2732Z" fill="url(#paint16_linear_0_287)"/>
<g filter="url(#filter4_f_0_287)">
<path d="M87.2803 93.8281L71.4996 102.939L58.5371 80.4873C57.5496 78.7769 57.9484 76.6739 59.4207 75.8239L69.8373 69.8098C71.3096 68.9598 73.3275 69.6675 74.315 71.3779L87.2803 93.8281Z" fill="url(#paint17_linear_0_287)"/>
</g>
<g filter="url(#filter5_f_0_287)">
<path d="M68.2595 102.652L90.1807 89.9956L91.6651 92.5666L69.7438 105.223L68.2595 102.652Z" fill="#68552B"/>
</g>
<g filter="url(#filter6_d_0_287)">
<path d="M99.2125 69.4453L89.6943 74.9406C89.4442 75.0854 89.168 75.1795 88.8815 75.2175C88.595 75.2554 88.3038 75.2364 88.0246 75.1616C87.7454 75.0868 87.4837 74.9577 87.2546 74.7815C87.0254 74.6054 86.8332 74.3858 86.6891 74.1353L81.1922 64.6145C80.575 63.5455 80.9625 62.2103 81.999 61.6119L91.5172 56.1166C92.5862 55.4994 93.9224 55.8826 94.5209 56.9191L100.018 66.44C100.166 66.6893 100.262 66.9657 100.302 67.2529C100.341 67.54 100.323 67.8322 100.248 68.1121C100.173 68.3921 100.042 68.6543 99.8647 68.8832C99.6869 69.1122 99.4652 69.3033 99.2125 69.4453Z" fill="url(#paint18_linear_0_287)"/>
<path d="M99.2125 69.4453L89.6943 74.9406C89.4442 75.0854 89.168 75.1795 88.8815 75.2175C88.595 75.2554 88.3038 75.2364 88.0246 75.1616C87.7454 75.0868 87.4837 74.9577 87.2546 74.7815C87.0254 74.6054 86.8332 74.3858 86.6891 74.1353L81.1922 64.6145C80.575 63.5455 80.9625 62.2103 81.999 61.6119L91.5172 56.1166C92.5862 55.4994 93.9224 55.8826 94.5209 56.9191L100.018 66.44C100.166 66.6893 100.262 66.9657 100.302 67.2529C100.341 67.54 100.323 67.8322 100.248 68.1121C100.173 68.3921 100.042 68.6543 99.8647 68.8832C99.6869 69.1122 99.4652 69.3033 99.2125 69.4453Z" fill="url(#paint19_linear_0_287)"/>
</g>
<path d="M99.2125 69.4453L89.6943 74.9406C89.4442 75.0854 89.168 75.1795 88.8815 75.2175C88.595 75.2554 88.3038 75.2364 88.0246 75.1616C87.7454 75.0868 87.4837 74.9577 87.2546 74.7815C87.0254 74.6054 86.8332 74.3858 86.6891 74.1353L81.1922 64.6145C80.575 63.5455 80.9625 62.2103 81.999 61.6119L91.5172 56.1166C92.5862 55.4994 93.9224 55.8826 94.5209 56.9191L100.018 66.44C100.166 66.6893 100.262 66.9657 100.302 67.2529C100.341 67.54 100.323 67.8322 100.248 68.1121C100.173 68.3921 100.042 68.6543 99.8647 68.8832C99.6869 69.1122 99.4652 69.3033 99.2125 69.4453Z" fill="url(#paint20_linear_0_287)"/>
<path d="M99.2125 69.4453L89.6943 74.9406C89.4442 75.0854 89.168 75.1795 88.8815 75.2175C88.595 75.2554 88.3038 75.2364 88.0246 75.1616C87.7454 75.0868 87.4837 74.9577 87.2546 74.7815C87.0254 74.6054 86.8332 74.3858 86.6891 74.1353L81.1922 64.6145C80.575 63.5455 80.9625 62.2103 81.999 61.6119L91.5172 56.1166C92.5862 55.4994 93.9224 55.8826 94.5209 56.9191L100.018 66.44C100.166 66.6893 100.262 66.9657 100.302 67.2529C100.341 67.54 100.323 67.8322 100.248 68.1121C100.173 68.3921 100.042 68.6543 99.8647 68.8832C99.6869 69.1122 99.4652 69.3033 99.2125 69.4453Z" fill="url(#paint21_linear_0_287)"/>
<g filter="url(#filter7_dd_0_287)">
<path d="M88.5022 89.6946L70.9029 99.8556L58.6139 78.5703C57.6764 76.9465 58.2569 74.8396 59.8997 73.8911L71.5152 67.1849C73.158 66.2364 75.2772 66.7883 76.2116 68.4066L88.5022 89.6946Z" fill="url(#paint22_linear_0_287)"/>
</g>
<g filter="url(#filter8_f_0_287)">
<path d="M78.0733 81.8126C78.4096 81.6184 78.6549 81.2987 78.7554 80.9236C78.8559 80.5485 78.8033 80.1489 78.6092 79.8126C78.415 79.4764 78.0952 79.231 77.7202 79.1305C77.3451 79.03 76.9455 79.0826 76.6092 79.2768C76.273 79.4709 76.0276 79.7907 75.9271 80.1657C75.8266 80.5408 75.8792 80.9404 76.0733 81.2767C76.2675 81.613 76.5873 81.8584 76.9623 81.9589C77.3374 82.0593 77.737 82.0067 78.0733 81.8126Z" fill="#62393D"/>
</g>
<g filter="url(#filter9_dd_0_287)">
<path d="M78.2925 81.4298C78.632 81.2338 78.8798 80.9109 78.9812 80.5322C79.0827 80.1536 79.0296 79.7501 78.8335 79.4106C78.6375 79.0711 78.3147 78.8234 77.936 78.7219C77.5574 78.6205 77.1539 78.6736 76.8144 78.8696C76.4749 79.0656 76.2272 79.3884 76.1257 79.7671C76.0242 80.1458 76.0774 80.5492 76.2734 80.8887C76.4694 81.2282 76.7922 81.476 77.1709 81.5774C77.5496 81.6789 77.953 81.6258 78.2925 81.4298Z" fill="#895D56"/>
</g>
<path d="M103.159 44.3182L57.7293 32.5068C56.9142 32.2899 56.0463 32.4049 55.3159 32.8266C54.5854 33.2484 54.0519 33.9424 53.8322 34.7568C53.8322 34.7568 53.8051 34.7724 53.8223 34.8022L41.286 80.1199C41.1752 80.5171 41.1448 80.9324 41.1966 81.3415C41.2484 81.7506 41.3812 82.1453 41.5874 82.5024C41.7936 82.8596 42.069 83.1719 42.3974 83.4213C42.7258 83.6707 43.1007 83.8521 43.5 83.9548C44.3148 84.1632 45.1788 84.0444 45.9071 83.6239C46.6354 83.2034 47.1703 82.5146 47.3972 81.7048L58.871 40.1218C58.9255 39.9239 59.0558 39.7554 59.2335 39.6528C59.4113 39.5502 59.6223 39.5216 59.8209 39.5733L101.427 50.3877C102.242 50.6046 103.11 50.4896 103.841 50.0679C104.571 49.6462 105.105 48.9521 105.324 48.1377C105.776 46.4446 104.835 44.7398 103.159 44.3182Z" fill="url(#paint23_linear_0_287)"/>
<path d="M69.8096 103.193C69.4988 102.655 69.4146 102.015 69.5755 101.415C69.7364 100.814 70.1292 100.302 70.6675 99.9915L88.5293 89.679C89.0676 89.3682 89.7073 89.2839 90.3078 89.4448C90.9082 89.6057 91.4201 89.9985 91.7309 90.5368L92.0434 91.0781L70.1221 103.734L69.8096 103.193Z" fill="url(#paint24_linear_0_287)"/>
<path d="M69.8096 103.193C69.4988 102.655 69.4146 102.015 69.5755 101.415C69.7364 100.814 70.1292 100.302 70.6675 99.9915L88.5293 89.679C89.0676 89.3682 89.7073 89.2839 90.3078 89.4448C90.9082 89.6057 91.4201 89.9985 91.7309 90.5368L92.0434 91.0781L70.1221 103.734L69.8096 103.193Z" fill="url(#paint25_linear_0_287)"/>
<path d="M69.8096 103.193C69.4988 102.655 69.4146 102.015 69.5755 101.415C69.7364 100.814 70.1292 100.302 70.6675 99.9915L88.5293 89.679C89.0676 89.3682 89.7073 89.2839 90.3078 89.4448C90.9082 89.6057 91.4201 89.9985 91.7309 90.5368L92.0434 91.0781L70.1221 103.734L69.8096 103.193Z" fill="url(#paint26_linear_0_287)"/>
<g filter="url(#filter10_d_0_287)">
<path d="M50.1141 122.561C48.375 119.549 49.4067 115.698 52.4189 113.959L116.876 76.7449C119.89 75.0043 123.741 76.036 125.48 79.0482L50.1141 122.561Z" fill="#3FD47B"/>
</g>
<path d="M50.1141 122.561C48.375 119.549 49.4067 115.698 52.4189 113.959L116.876 76.7449C119.89 75.0043 123.741 76.036 125.48 79.0482L50.1141 122.561Z" fill="url(#paint27_linear_0_287)"/>
<path d="M50.1141 122.561C48.375 119.549 49.4067 115.698 52.4189 113.959L116.876 76.7449C119.89 75.0043 123.741 76.036 125.48 79.0482L50.1141 122.561Z" fill="url(#paint28_radial_0_287)"/>
<path d="M50.1141 122.561C48.375 119.549 49.4067 115.698 52.4189 113.959L116.876 76.7449C119.89 75.0043 123.741 76.036 125.48 79.0482L50.1141 122.561Z" fill="url(#paint29_radial_0_287)"/>
<g filter="url(#filter11_d_0_287)">
<path d="M114.582 85.3403C115.856 83.8355 116.636 81.9752 116.817 80.0118C116.997 78.0484 116.57 76.0769 115.592 74.3649C112.94 69.7722 107.011 68.2338 102.351 70.9245C100.999 71.6993 99.8519 72.786 99.0052 74.094C98.1586 75.4019 97.6367 76.8932 97.4831 78.4437C97.3041 80.2899 96.5677 82.1332 95.7231 83.7828C95.222 84.7505 94.9718 85.8286 94.9956 86.9182C95.0195 88.0078 95.3165 89.0739 95.8594 90.0188C96.9531 91.9133 98.8637 93.0474 100.905 93.2399L114.582 85.3403Z" fill="#2EAD69"/>
<path d="M114.582 85.3403C115.856 83.8355 116.636 81.9752 116.817 80.0118C116.997 78.0484 116.57 76.0769 115.592 74.3649C112.94 69.7722 107.011 68.2338 102.351 70.9245C100.999 71.6993 99.8519 72.786 99.0052 74.094C98.1586 75.4019 97.6367 76.8932 97.4831 78.4437C97.3041 80.2899 96.5677 82.1332 95.7231 83.7828C95.222 84.7505 94.9718 85.8286 94.9956 86.9182C95.0195 88.0078 95.3165 89.0739 95.8594 90.0188C96.9531 91.9133 98.8637 93.0474 100.905 93.2399L114.582 85.3403Z" fill="url(#paint30_linear_0_287)"/>
<path d="M114.582 85.3403C115.856 83.8355 116.636 81.9752 116.817 80.0118C116.997 78.0484 116.57 76.0769 115.592 74.3649C112.94 69.7722 107.011 68.2338 102.351 70.9245C100.999 71.6993 99.8519 72.786 99.0052 74.094C98.1586 75.4019 97.6367 76.8932 97.4831 78.4437C97.3041 80.2899 96.5677 82.1332 95.7231 83.7828C95.222 84.7505 94.9718 85.8286 94.9956 86.9182C95.0195 88.0078 95.3165 89.0739 95.8594 90.0188C96.9531 91.9133 98.8637 93.0474 100.905 93.2399L114.582 85.3403Z" fill="url(#paint31_radial_0_287)"/>
<path d="M114.582 85.3403C115.856 83.8355 116.636 81.9752 116.817 80.0118C116.997 78.0484 116.57 76.0769 115.592 74.3649C112.94 69.7722 107.011 68.2338 102.351 70.9245C100.999 71.6993 99.8519 72.786 99.0052 74.094C98.1586 75.4019 97.6367 76.8932 97.4831 78.4437C97.3041 80.2899 96.5677 82.1332 95.7231 83.7828C95.222 84.7505 94.9718 85.8286 94.9956 86.9182C95.0195 88.0078 95.3165 89.0739 95.8594 90.0188C96.9531 91.9133 98.8637 93.0474 100.905 93.2399L114.582 85.3403Z" fill="url(#paint32_radial_0_287)"/>
</g>
<path d="M114.582 85.3403C115.856 83.8355 116.636 81.9752 116.817 80.0118C116.997 78.0484 116.57 76.0769 115.592 74.3649C112.94 69.7722 107.011 68.2338 102.351 70.9245C100.999 71.6993 99.8519 72.786 99.0052 74.094C98.1586 75.4019 97.6367 76.8932 97.4831 78.4437C97.3041 80.2899 96.5677 82.1332 95.7231 83.7828C95.222 84.7505 94.9718 85.8286 94.9956 86.9182C95.0195 88.0078 95.3165 89.0739 95.8594 90.0188C96.9531 91.9133 98.8637 93.0474 100.905 93.2399L114.582 85.3403Z" fill="url(#paint33_radial_0_287)"/>
<g filter="url(#filter12_f_0_287)">
<path d="M57.019 34.7393L102.567 46.5687" stroke="url(#paint34_linear_0_287)" stroke-width="0.28125" stroke-linecap="round"/>
</g>
<g filter="url(#filter13_f_0_287)">
<path d="M57.0191 34.7393L44.4895 80.1" stroke="url(#paint35_linear_0_287)" stroke-opacity="0.5" stroke-width="0.28125" stroke-linecap="round"/>
</g>
<g filter="url(#filter14_f_0_287)">
<path d="M106.12 87.3967C103.827 86.4598 101.772 85.0228 100.105 83.1907C100.039 83.1152 99.9572 83.0547 99.8657 83.0134C99.7742 82.9721 99.6749 82.951 99.5746 82.9514C99.4742 82.9519 99.3751 82.9739 99.284 83.016C99.1929 83.0581 99.1119 83.1193 99.0466 83.1954L98.6695 83.6549C98.0735 84.3805 97.7514 85.2925 97.7593 86.2315C97.7673 87.1705 98.1048 88.0768 98.713 88.7923C99.3212 89.5078 100.161 89.9869 101.087 90.146C102.012 90.305 102.964 90.134 103.776 89.6626L106.201 88.2626C106.545 88.0642 106.488 87.5412 106.12 87.3967Z" fill="#31B570"/>
</g>
</g>
</g>
<defs>
<filter id="filter0_d_0_287" x="27.2041" y="30.3997" width="100.276" height="98.1611" filterUnits="userSpaceOnUse" color-interpolation-filters="sRGB">
<feFlood flood-opacity="0" result="BackgroundImageFix"/>
<feColorMatrix in="SourceAlpha" type="matrix" values="0 0 0 0 0 0 0 0 0 0 0 0 0 0 0 0 0 0 127 0" result="hardAlpha"/>
<feOffset dx="-2" dy="2"/>
<feGaussianBlur stdDeviation="2"/>
<feComposite in2="hardAlpha" operator="out"/>
<feColorMatrix type="matrix" values="0 0 0 0 0.152941 0 0 0 0 0.588235 0 0 0 0 0.337255 0 0 0 0.3 0"/>
<feBlend mode="normal" in2="BackgroundImageFix" result="effect1_dropShadow_0_287"/>
<feBlend mode="normal" in="SourceGraphic" in2="effect1_dropShadow_0_287" result="shape"/>
</filter>
<filter id="filter1_d_0_287" x="32.4541" y="53.8713" width="37.4928" height="50.47" filterUnits="userSpaceOnUse" color-interpolation-filters="sRGB">
<feFlood flood-opacity="0" result="BackgroundImageFix"/>
<feColorMatrix in="SourceAlpha" type="matrix" values="0 0 0 0 0 0 0 0 0 0 0 0 0 0 0 0 0 0 127 0" result="hardAlpha"/>
<feOffset dx="0.1875" dy="0.1875"/>
<feGaussianBlur stdDeviation="0.46875"/>
<feComposite in2="hardAlpha" operator="out"/>
<feColorMatrix type="matrix" values="0 0 0 0 0.301961 0 0 0 0 0.592157 0 0 0 0 0.392157 0 0 0 1 0"/>
<feBlend mode="normal" in2="BackgroundImageFix" result="effect1_dropShadow_0_287"/>
<feBlend mode="normal" in="SourceGraphic" in2="effect1_dropShadow_0_287" result="shape"/>
</filter>
<filter id="filter2_f_0_287" x="38.9783" y="86.4058" width="17.3594" height="16.1157" filterUnits="userSpaceOnUse" color-interpolation-filters="sRGB">
<feFlood flood-opacity="0" result="BackgroundImageFix"/>
<feBlend mode="normal" in="SourceGraphic" in2="BackgroundImageFix" result="shape"/>
<feGaussianBlur stdDeviation="0.46875" result="effect1_foregroundBlur_0_287"/>
</filter>
<filter id="filter3_f_0_287" x="33.8439" y="69.1545" width="15.5026" height="17.8645" filterUnits="userSpaceOnUse" color-interpolation-filters="sRGB">
<feFlood flood-opacity="0" result="BackgroundImageFix"/>
<feBlend mode="normal" in="SourceGraphic" in2="BackgroundImageFix" result="shape"/>
<feGaussianBlur stdDeviation="0.46875" result="effect1_foregroundBlur_0_287"/>
</filter>
<filter id="filter4_f_0_287" x="57.5258" y="68.981" width="30.2233" height="34.4268" filterUnits="userSpaceOnUse" color-interpolation-filters="sRGB">
<feFlood flood-opacity="0" result="BackgroundImageFix"/>
<feBlend mode="normal" in="SourceGraphic" in2="BackgroundImageFix" result="shape"/>
<feGaussianBlur stdDeviation="0.234375" result="effect1_foregroundBlur_0_287"/>
</filter>
<filter id="filter5_f_0_287" x="67.7907" y="89.5269" width="24.3431" height="16.1648" filterUnits="userSpaceOnUse" color-interpolation-filters="sRGB">
<feFlood flood-opacity="0" result="BackgroundImageFix"/>
<feBlend mode="normal" in="SourceGraphic" in2="BackgroundImageFix" result="shape"/>
<feGaussianBlur stdDeviation="0.234375" result="effect1_foregroundBlur_0_287"/>
</filter>
<filter id="filter6_d_0_287" x="79.959" y="55.8198" width="20.3628" height="20.3542" filterUnits="userSpaceOnUse" color-interpolation-filters="sRGB">
<feFlood flood-opacity="0" result="BackgroundImageFix"/>
<feColorMatrix in="SourceAlpha" type="matrix" values="0 0 0 0 0 0 0 0 0 0 0 0 0 0 0 0 0 0 127 0" result="hardAlpha"/>
<feOffset dx="-0.46875" dy="0.46875"/>
<feGaussianBlur stdDeviation="0.234375"/>
<feComposite in2="hardAlpha" operator="out"/>
<feColorMatrix type="matrix" values="0 0 0 0 0.0470588 0 0 0 0 0.47451 0 0 0 0 0.792157 0 0 0 1 0"/>
<feBlend mode="normal" in2="BackgroundImageFix" result="effect1_dropShadow_0_287"/>
<feBlend mode="normal" in="SourceGraphic" in2="effect1_dropShadow_0_287" result="shape"/>
</filter>
<filter id="filter7_dd_0_287" x="57.6964" y="66.2517" width="31.5089" height="34.0725" filterUnits="userSpaceOnUse" color-interpolation-filters="sRGB">
<feFlood flood-opacity="0" result="BackgroundImageFix"/>
<feColorMatrix in="SourceAlpha" type="matrix" values="0 0 0 0 0 0 0 0 0 0 0 0 0 0 0 0 0 0 127 0" result="hardAlpha"/>
<feOffset dx="0.234375"/>
<feGaussianBlur stdDeviation="0.234375"/>
<feComposite in2="hardAlpha" operator="out"/>
<feColorMatrix type="matrix" values="0 0 0 0 0.254902 0 0 0 0 0.188235 0 0 0 0 0.141176 0 0 0 1 0"/>
<feBlend mode="normal" in2="BackgroundImageFix" result="effect1_dropShadow_0_287"/>
<feColorMatrix in="SourceAlpha" type="matrix" values="0 0 0 0 0 0 0 0 0 0 0 0 0 0 0 0 0 0 127 0" result="hardAlpha"/>
<feOffset dx="-0.1875"/>
<feGaussianBlur stdDeviation="0.140625"/>
<feComposite in2="hardAlpha" operator="out"/>
<feColorMatrix type="matrix" values="0 0 0 0 0.694118 0 0 0 0 0.470588 0 0 0 0 0.407843 0 0 0 1 0"/>
<feBlend mode="normal" in2="effect1_dropShadow_0_287" result="effect2_dropShadow_0_287"/>
<feBlend mode="normal" in="SourceGraphic" in2="effect2_dropShadow_0_287" result="shape"/>
</filter>
<filter id="filter8_f_0_287" x="75.7366" y="78.9399" width="3.20935" height="3.20947" filterUnits="userSpaceOnUse" color-interpolation-filters="sRGB">
<feFlood flood-opacity="0" result="BackgroundImageFix"/>
<feBlend mode="normal" in="SourceGraphic" in2="BackgroundImageFix" result="shape"/>
<feGaussianBlur stdDeviation="0.0703125" result="effect1_foregroundBlur_0_287"/>
</filter>
<filter id="filter9_dd_0_287" x="75.7941" y="78.4841" width="3.51874" height="3.33105" filterUnits="userSpaceOnUse" color-interpolation-filters="sRGB">
<feFlood flood-opacity="0" result="BackgroundImageFix"/>
<feColorMatrix in="SourceAlpha" type="matrix" values="0 0 0 0 0 0 0 0 0 0 0 0 0 0 0 0 0 0 127 0" result="hardAlpha"/>
<feOffset dx="-0.09375"/>
<feGaussianBlur stdDeviation="0.09375"/>
<feComposite in2="hardAlpha" operator="out"/>
<feColorMatrix type="matrix" values="0 0 0 0 0.694118 0 0 0 0 0.482353 0 0 0 0 0.419608 0 0 0 1 0"/>
<feBlend mode="normal" in2="BackgroundImageFix" result="effect1_dropShadow_0_287"/>
<feColorMatrix in="SourceAlpha" type="matrix" values="0 0 0 0 0 0 0 0 0 0 0 0 0 0 0 0 0 0 127 0" result="hardAlpha"/>
<feOffset dx="0.09375"/>
<feGaussianBlur stdDeviation="0.09375"/>
<feComposite in2="hardAlpha" operator="out"/>
<feColorMatrix type="matrix" values="0 0 0 0 0.290196 0 0 0 0 0.184314 0 0 0 0 0.164706 0 0 0 1 0"/>
<feBlend mode="normal" in2="effect1_dropShadow_0_287" result="effect2_dropShadow_0_287"/>
<feBlend mode="normal" in="SourceGraphic" in2="effect2_dropShadow_0_287" result="shape"/>
</filter>
<filter id="filter10_d_0_287" x="48.8005" y="74.9614" width="78.0857" height="48.5369" filterUnits="userSpaceOnUse" color-interpolation-filters="sRGB">
<feFlood flood-opacity="0" result="BackgroundImageFix"/>
<feColorMatrix in="SourceAlpha" type="matrix" values="0 0 0 0 0 0 0 0 0 0 0 0 0 0 0 0 0 0 127 0" result="hardAlpha"/>
<feOffset dx="0.46875"/>
<feGaussianBlur stdDeviation="0.46875"/>
<feComposite in2="hardAlpha" operator="out"/>
<feColorMatrix type="matrix" values="0 0 0 0 0.25098 0 0 0 0 0.545098 0 0 0 0 0.352941 0 0 0 1 0"/>
<feBlend mode="normal" in2="BackgroundImageFix" result="effect1_dropShadow_0_287"/>
<feBlend mode="normal" in="SourceGraphic" in2="effect1_dropShadow_0_287" result="shape"/>
</filter>
<filter id="filter11_d_0_287" x="94.6191" y="69.2251" width="22.9879" height="24.7649" filterUnits="userSpaceOnUse" color-interpolation-filters="sRGB">
<feFlood flood-opacity="0" result="BackgroundImageFix"/>
<feColorMatrix in="SourceAlpha" type="matrix" values="0 0 0 0 0 0 0 0 0 0 0 0 0 0 0 0 0 0 127 0" result="hardAlpha"/>
<feOffset dx="0.1875" dy="0.1875"/>
<feGaussianBlur stdDeviation="0.28125"/>
<feComposite in2="hardAlpha" operator="out"/>
<feColorMatrix type="matrix" values="0 0 0 0 0.309804 0 0 0 0 0.564706 0 0 0 0 0.329412 0 0 0 1 0"/>
<feBlend mode="normal" in2="BackgroundImageFix" result="effect1_dropShadow_0_287"/>
<feBlend mode="normal" in="SourceGraphic" in2="effect1_dropShadow_0_287" result="shape"/>
</filter>
<filter id="filter12_f_0_287" x="56.3159" y="34.0361" width="46.9547" height="13.2358" filterUnits="userSpaceOnUse" color-interpolation-filters="sRGB">
<feFlood flood-opacity="0" result="BackgroundImageFix"/>
<feBlend mode="normal" in="SourceGraphic" in2="BackgroundImageFix" result="shape"/>
<feGaussianBlur stdDeviation="0.28125" result="effect1_foregroundBlur_0_287"/>
</filter>
<filter id="filter13_f_0_287" x="43.7864" y="34.0361" width="13.9359" height="46.7671" filterUnits="userSpaceOnUse" color-interpolation-filters="sRGB">
<feFlood flood-opacity="0" result="BackgroundImageFix"/>
<feBlend mode="normal" in="SourceGraphic" in2="BackgroundImageFix" result="shape"/>
<feGaussianBlur stdDeviation="0.28125" result="effect1_foregroundBlur_0_287"/>
</filter>
<filter id="filter14_f_0_287" x="97.0561" y="82.2483" width="10.0771" height="8.65869" filterUnits="userSpaceOnUse" color-interpolation-filters="sRGB">
<feFlood flood-opacity="0" result="BackgroundImageFix"/>
<feBlend mode="normal" in="SourceGraphic" in2="BackgroundImageFix" result="shape"/>
<feGaussianBlur stdDeviation="0.351562" result="effect1_foregroundBlur_0_287"/>
</filter>
<linearGradient id="paint0_linear_0_287" x1="36.4702" y1="59.2039" x2="59.1483" y2="98.4835" gradientUnits="userSpaceOnUse">
<stop stop-color="#29884D"/>
<stop offset="1" stop-color="#227341"/>
</linearGradient>
<linearGradient id="paint1_linear_0_287" x1="53.4652" y1="102.328" x2="52.2684" y2="100.255" gradientUnits="userSpaceOnUse">
<stop stop-color="#4E7978"/>
<stop offset="1" stop-color="#4E7978" stop-opacity="0"/>
</linearGradient>
<radialGradient id="paint2_radial_0_287" cx="0" cy="0" r="1" gradientUnits="userSpaceOnUse" gradientTransform="translate(40.1143 54.4405) rotate(60) scale(8.80256 8.20434)">
<stop offset="0.097" stop-color="#4DB56F"/>
<stop offset="1" stop-color="#4DB56F" stop-opacity="0"/>
</radialGradient>
<radialGradient id="paint3_radial_0_287" cx="0" cy="0" r="1" gradientUnits="userSpaceOnUse" gradientTransform="translate(47.242 97.445) rotate(-67.7036) scale(12.6588 21.1819)">
<stop stop-color="#279D5A"/>
<stop offset="1" stop-color="#279D5A" stop-opacity="0"/>
</radialGradient>
<radialGradient id="paint4_radial_0_287" cx="0" cy="0" r="1" gradientUnits="userSpaceOnUse" gradientTransform="translate(37.0662 76.6456) rotate(10.6049) scale(9.55364 16.118)">
<stop stop-color="#2EA75B"/>
<stop offset="1" stop-color="#2EA75B" stop-opacity="0"/>
</radialGradient>
<radialGradient id="paint5_radial_0_287" cx="0" cy="0" r="1" gradientUnits="userSpaceOnUse" gradientTransform="translate(43.8324 45.7804) rotate(60) scale(11.9787 5.94719)">
<stop stop-color="#FFD1A3"/>
<stop offset="1" stop-color="#DFA276"/>
</radialGradient>
<linearGradient id="paint6_linear_0_287" x1="40.7446" y1="57.8509" x2="44.1248" y2="55.8993" gradientUnits="userSpaceOnUse">
<stop stop-color="#8E694B"/>
<stop offset="1" stop-color="#8E694B" stop-opacity="0"/>
</linearGradient>
<linearGradient id="paint7_linear_0_287" x1="48.8959" y1="56.6882" x2="46.412" y2="55.7984" gradientUnits="userSpaceOnUse">
<stop stop-color="#C77958"/>
<stop offset="1" stop-color="#C77958" stop-opacity="0"/>
</linearGradient>
<linearGradient id="paint8_linear_0_287" x1="40.0571" y1="46.0477" x2="40.2759" y2="46.4265" gradientUnits="userSpaceOnUse">
<stop stop-color="#D5AD80"/>
<stop offset="1" stop-color="#D5AD80" stop-opacity="0"/>
</linearGradient>
<radialGradient id="paint9_radial_0_287" cx="0" cy="0" r="1" gradientUnits="userSpaceOnUse" gradientTransform="translate(45.3589 43.7119) rotate(150) scale(6.46138 1.38891)">
<stop stop-color="#FFE9B1"/>
<stop offset="1" stop-color="#FFE9B1" stop-opacity="0"/>
</radialGradient>
<linearGradient id="paint10_linear_0_287" x1="56.0358" y1="86.4675" x2="101.876" y2="60.0019" gradientUnits="userSpaceOnUse">
<stop stop-color="#D7905F"/>
<stop offset="1" stop-color="#E8BC97"/>
</linearGradient>
<linearGradient id="paint11_linear_0_287" x1="69.0642" y1="106.052" x2="72.0792" y2="69.7931" gradientUnits="userSpaceOnUse">
<stop stop-color="#BA8951"/>
<stop offset="1" stop-color="#BA8951" stop-opacity="0"/>
</linearGradient>
<radialGradient id="paint12_radial_0_287" cx="0" cy="0" r="1" gradientUnits="userSpaceOnUse" gradientTransform="translate(98.1092 85.2118) rotate(-147.235) scale(9.92734 12.0082)">
<stop stop-color="#BEAB75"/>
<stop offset="1" stop-color="#BEAB75" stop-opacity="0"/>
</radialGradient>
<linearGradient id="paint13_linear_0_287" x1="107.556" y1="66.7214" x2="105.983" y2="67.6292" gradientUnits="userSpaceOnUse">
<stop stop-color="#FFE6B1"/>
<stop offset="1" stop-color="#FFE6B1" stop-opacity="0"/>
</linearGradient>
<radialGradient id="paint14_radial_0_287" cx="0" cy="0" r="1" gradientUnits="userSpaceOnUse" gradientTransform="translate(96.113 45.5645) rotate(60) scale(12.3804 2.61894)">
<stop offset="0.35" stop-color="#9E413E"/>
<stop offset="1" stop-color="#9E413E" stop-opacity="0"/>
</radialGradient>
<linearGradient id="paint15_linear_0_287" x1="71.6952" y1="42.1216" x2="71.2491" y2="43.7864" gradientUnits="userSpaceOnUse">
<stop stop-color="#B55852"/>
<stop offset="1" stop-color="#B55852" stop-opacity="0"/>
</linearGradient>
<linearGradient id="paint16_linear_0_287" x1="61.3124" y1="100.413" x2="62.9849" y2="99.4475" gradientUnits="userSpaceOnUse">
<stop stop-color="#845F3D"/>
<stop offset="1" stop-color="#845F3D" stop-opacity="0"/>
</linearGradient>
<linearGradient id="paint17_linear_0_287" x1="64.6277" y1="72.8176" x2="79.3886" y2="98.3843" gradientUnits="userSpaceOnUse">
<stop stop-color="#805139"/>
<stop offset="1" stop-color="#6D4D2F"/>
</linearGradient>
<linearGradient id="paint18_linear_0_287" x1="88.3703" y1="77.0473" x2="94.4779" y2="54.4072" gradientUnits="userSpaceOnUse">
<stop stop-color="#4CCCFF"/>
<stop offset="1" stop-color="#3A9EE6"/>
</linearGradient>
<linearGradient id="paint19_linear_0_287" x1="94.9376" y1="73.0284" x2="93.4235" y2="70.406" gradientUnits="userSpaceOnUse">
<stop stop-color="#1E9FE4"/>
<stop offset="1" stop-color="#1E9FE4" stop-opacity="0"/>
</linearGradient>
<linearGradient id="paint20_linear_0_287" x1="85.8328" y1="72.6523" x2="88.5094" y2="71.1069" gradientUnits="userSpaceOnUse">
<stop stop-color="#48E0FF"/>
<stop offset="1" stop-color="#48E0FF" stop-opacity="0"/>
</linearGradient>
<linearGradient id="paint21_linear_0_287" x1="80.7631" y1="59.215" x2="85.6636" y2="63.5592" gradientUnits="userSpaceOnUse">
<stop stop-color="#43B3F2"/>
<stop offset="1" stop-color="#43B3F2" stop-opacity="0"/>
</linearGradient>
<linearGradient id="paint22_linear_0_287" x1="65.6857" y1="90.8191" x2="83.2194" y2="80.5445" gradientUnits="userSpaceOnUse">
<stop stop-color="#70504D"/>
<stop offset="1" stop-color="#9B665E"/>
</linearGradient>
<linearGradient id="paint23_linear_0_287" x1="55.261" y1="32.8565" x2="74.9063" y2="66.8832" gradientUnits="userSpaceOnUse">
<stop stop-color="#EA6D2E"/>
<stop offset="1" stop-color="#CA222B"/>
</linearGradient>
<linearGradient id="paint24_linear_0_287" x1="70.7137" y1="103.396" x2="91.2466" y2="91.5417" gradientUnits="userSpaceOnUse">
<stop stop-color="#9FA1A3"/>
<stop offset="1" stop-color="#C4C1C7"/>
</linearGradient>
<linearGradient id="paint25_linear_0_287" x1="69.7556" y1="103.95" x2="72.3699" y2="102.44" gradientUnits="userSpaceOnUse">
<stop stop-color="#59675C"/>
<stop offset="1" stop-color="#59675C" stop-opacity="0"/>
</linearGradient>
<linearGradient id="paint26_linear_0_287" x1="91.3012" y1="89.7926" x2="89.6174" y2="92.4824" gradientUnits="userSpaceOnUse">
<stop stop-color="#C8CAC6"/>
<stop offset="1" stop-color="#C8CAC6" stop-opacity="0"/>
</linearGradient>
<linearGradient id="paint27_linear_0_287" x1="88.6329" y1="102.252" x2="86.222" y2="98.0764" gradientUnits="userSpaceOnUse">
<stop offset="0.107" stop-color="#3FD17B"/>
<stop offset="1" stop-color="#3FD17B" stop-opacity="0"/>
</linearGradient>
<radialGradient id="paint28_radial_0_287" cx="0" cy="0" r="1" gradientUnits="userSpaceOnUse" gradientTransform="translate(99.142 90.6171) rotate(98.0959) scale(6.01469 7.58776)">
<stop offset="0.171" stop-color="#228051"/>
<stop offset="1" stop-color="#228051" stop-opacity="0"/>
</radialGradient>
<radialGradient id="paint29_radial_0_287" cx="0" cy="0" r="1" gradientUnits="userSpaceOnUse" gradientTransform="translate(121.878 72.8052) rotate(117.147) scale(10.4409 17.1205)">
<stop stop-color="#5CEE92"/>
<stop offset="1" stop-color="#5CEE92" stop-opacity="0"/>
</radialGradient>
<linearGradient id="paint30_linear_0_287" x1="107.796" y1="91.4444" x2="104.575" y2="85.864" gradientUnits="userSpaceOnUse">
<stop stop-color="#3B8478"/>
<stop offset="1" stop-color="#3B8478" stop-opacity="0"/>
</linearGradient>
<radialGradient id="paint31_radial_0_287" cx="0" cy="0" r="1" gradientUnits="userSpaceOnUse" gradientTransform="translate(116.877 94.7468) rotate(-140.329) scale(21.2515 9.68037)">
<stop stop-color="#2C785B"/>
<stop offset="1" stop-color="#2C785B" stop-opacity="0"/>
</radialGradient>
<radialGradient id="paint32_radial_0_287" cx="0" cy="0" r="1" gradientUnits="userSpaceOnUse" gradientTransform="translate(108.947 74.6503) rotate(112.112) scale(23.6531 32.0153)">
<stop offset="0.641" stop-color="#2C785B" stop-opacity="0"/>
<stop offset="0.966" stop-color="#2C785B"/>
</radialGradient>
<radialGradient id="paint33_radial_0_287" cx="0" cy="0" r="1" gradientUnits="userSpaceOnUse" gradientTransform="translate(112.297 70.497) rotate(118.884) scale(13.4822 12.8348)">
<stop stop-color="#60FB9A"/>
<stop offset="1" stop-color="#60FB9A" stop-opacity="0"/>
</radialGradient>
<linearGradient id="paint34_linear_0_287" x1="55.8724" y1="34.8095" x2="105.535" y2="48.8967" gradientUnits="userSpaceOnUse">
<stop stop-color="#FF8337"/>
<stop offset="1" stop-color="#F24747"/>
</linearGradient>
<linearGradient id="paint35_linear_0_287" x1="57.6559" y1="33.7798" x2="45.0244" y2="83.8326" gradientUnits="userSpaceOnUse">
<stop stop-color="#FF8337"/>
<stop offset="1" stop-color="#F24747"/>
</linearGradient>
<clipPath id="clip0_0_287">
<rect y="50" width="100" height="100" transform="rotate(-30 0 50)" fill="white"/>
</clipPath>
</defs>
</svg>
